<svg width="216" height="43" viewBox="0 0 216 43" fill="none" xmlns="http://www.w3.org/2000/svg">
<path d="M51.9637 23.5994L43.6297 0.398682H48.7293L54.6316 17.5471L60.345 0.398682H65.3501L56.9925 23.576L51.9637 23.5994Z" fill="#8B72B0"/>
<path d="M67.7819 23.5997V0.422363H77.6977C80.2003 0.422363 81.9946 0.633493 83.1278 1.05575C84.261 1.47801 85.1582 2.20523 85.8428 3.28434C86.5275 4.33998 86.858 5.55984 86.858 6.94391C86.858 8.67986 86.3386 10.1108 85.3234 11.2603C84.2846 12.3864 82.75 13.1136 80.7197 13.3951C81.7349 13.9816 82.5848 14.6384 83.2458 15.3422C83.9069 16.0459 84.804 17.3127 85.9373 19.0956L88.794 23.6231H83.1514L79.7517 18.5795C78.5476 16.7731 77.7213 15.6471 77.2727 15.1779C76.8242 14.7088 76.352 14.3804 75.8562 14.2161C75.3604 14.0519 74.5577 13.9581 73.4953 13.9581H72.5509V23.6466H67.7819V23.5997ZM72.4801 10.2047H75.9742C78.2407 10.2047 79.6336 10.1108 80.2003 9.92318C80.7669 9.73551 81.1918 9.40708 81.5224 8.93791C81.8293 8.46873 81.9946 7.90572 81.9946 7.20196C81.9946 6.42782 81.7821 5.79443 81.3571 5.30179C80.9321 4.83262 80.3419 4.52765 79.5864 4.3869C79.2087 4.33998 78.0518 4.31652 76.1395 4.31652H72.4565L72.4801 10.2047Z" fill="#8B72B0"/>
<path d="M111.199 15.0605V11.1429H121.351V20.4091C120.359 21.3475 118.943 22.192 117.054 22.9192C115.189 23.6464 113.277 23.9983 111.364 23.9983C108.933 23.9983 106.808 23.4822 104.99 22.4735C103.172 21.4648 101.803 20.0103 100.905 18.1102C99.9847 16.21 99.5361 14.1691 99.5361 11.9405C99.5361 9.52424 100.056 7.38948 101.071 5.51278C102.086 3.63607 103.573 2.20509 105.533 1.19636C107.02 0.422216 108.885 0.046875 111.128 0.046875C114.032 0.046875 116.299 0.656804 117.928 1.8532C119.557 3.0496 120.595 4.73864 121.068 6.84993L116.393 7.71791C116.063 6.56843 115.449 5.67699 114.528 5.02014C113.631 4.3633 112.498 4.03487 111.128 4.03487C109.074 4.03487 107.422 4.69172 106.218 5.98196C105.013 7.27219 104.4 9.19581 104.4 11.7528C104.4 14.4975 105.013 16.5619 106.241 17.946C107.469 19.33 109.074 20.0103 111.081 20.0103C112.073 20.0103 113.064 19.8227 114.056 19.4239C115.047 19.0485 115.897 18.5793 116.606 18.0163V15.084L111.199 15.0605Z" fill="#8B72B0"/>
<path d="M125.719 23.5997V0.422363H135.634C138.137 0.422363 139.931 0.633493 141.065 1.05575C142.198 1.47801 143.095 2.20523 143.78 3.28434C144.464 4.33998 144.795 5.55984 144.795 6.94391C144.795 8.67986 144.275 10.1108 143.26 11.2603C142.221 12.3864 140.687 13.1136 138.656 13.3951C139.672 13.9816 140.522 14.6384 141.183 15.3422C141.844 16.0459 142.741 17.3127 143.874 19.0956L146.731 23.6231H141.088L137.688 18.5795C136.484 16.7731 135.658 15.6471 135.21 15.1779C134.761 14.7088 134.289 14.3804 133.793 14.2161C133.297 14.0519 132.494 13.9581 131.432 13.9581H130.488V23.6466H125.719V23.5997ZM130.44 10.2047H133.935C136.201 10.2047 137.594 10.1108 138.161 9.92318C138.727 9.73551 139.152 9.40708 139.483 8.93791C139.79 8.46873 139.955 7.90572 139.955 7.20196C139.955 6.42782 139.742 5.79443 139.317 5.30179C138.893 4.83262 138.302 4.52765 137.547 4.3869C137.169 4.33998 136.012 4.31652 134.1 4.31652H130.417L130.44 10.2047Z" fill="#8B72B0"/>
<path d="M148.289 12.1516C148.289 9.7823 148.643 7.81176 149.351 6.21656C149.871 5.04362 150.603 3.98798 151.523 3.02617C152.444 2.08781 153.436 1.38405 154.545 0.938331C156.009 0.328402 157.685 0.0234375 159.574 0.0234375C163.021 0.0234375 165.76 1.07908 167.837 3.21384C169.891 5.32513 170.93 8.28094 170.93 12.0578C170.93 15.8112 169.915 18.7201 167.861 20.8314C165.807 22.9427 163.068 23.9983 159.645 23.9983C156.174 23.9983 153.412 22.9427 151.358 20.8549C149.328 18.7201 148.289 15.8347 148.289 12.1516ZM153.152 11.9874C153.152 14.6148 153.766 16.6088 154.994 17.946C156.222 19.3066 157.756 19.9869 159.645 19.9869C161.534 19.9869 163.068 19.3066 164.272 17.9694C165.476 16.6323 166.09 14.6148 166.09 11.9171C166.09 9.26621 165.5 7.27221 164.343 5.98198C163.163 4.66828 161.605 4.01144 159.669 4.01144C157.733 4.01144 156.151 4.66828 154.97 6.00543C153.743 7.31913 153.152 9.31313 153.152 11.9874Z" fill="#8B72B0"/>
<path d="M174.566 0.398703H179.288V12.9492C179.288 14.9432 179.335 16.2334 179.453 16.8199C179.666 17.7582 180.138 18.5324 180.893 19.0954C181.649 19.6584 182.688 19.9634 184.01 19.9634C185.355 19.9634 186.347 19.6818 187.032 19.1423C187.716 18.6027 188.118 17.9224 188.259 17.1483C188.401 16.3507 188.472 15.037 188.472 13.2072V0.375244H193.194V12.5504C193.194 15.342 193.076 17.289 192.816 18.4385C192.556 19.588 192.084 20.5498 191.399 21.3474C190.715 22.145 189.794 22.7784 188.661 23.2476C187.527 23.7168 186.016 23.9513 184.175 23.9513C181.956 23.9513 180.256 23.6933 179.099 23.1772C177.942 22.6611 177.045 22.0043 176.36 21.1832C175.699 20.3622 175.251 19.5176 175.038 18.6027C174.731 17.2656 174.566 15.3185 174.566 12.7146V0.398703Z" fill="#8B72B0"/>
<path d="M198.151 23.5997V0.422363H205.706C208.563 0.422363 210.428 0.539657 211.302 0.774246C212.647 1.12613 213.757 1.87681 214.654 3.04975C215.551 4.22269 216 5.72406 216 7.55384C216 8.98483 215.74 10.1812 215.221 11.143C214.701 12.1049 214.04 12.879 213.238 13.4185C212.435 13.9816 211.632 14.3334 210.806 14.5211C209.673 14.7322 208.044 14.8495 205.919 14.8495H202.85V23.5997H198.151ZM202.85 4.33999V10.9085H205.423C207.288 10.9085 208.516 10.7912 209.153 10.5331C209.791 10.2985 210.263 9.89972 210.617 9.38363C210.971 8.86754 211.16 8.25761 211.16 7.5773C211.16 6.73278 210.9 6.02902 210.405 5.48947C209.909 4.94991 209.271 4.59803 208.516 4.45728C207.949 4.36344 206.816 4.29307 205.116 4.29307H202.85V4.33999Z" fill="#8B72B0"/>
<path d="M13.0795 0.0234375H0V42.4839H13.0795V0.0234375Z" fill="#8B72B0"/>
<path d="M34.9179 19.0015C34.9179 27.4702 28.0005 34.3436 19.4776 34.3436C17.1875 34.3436 15.0154 33.851 13.0795 32.9595C7.74381 30.5433 4.03717 25.1947 4.03717 18.9781C4.03717 12.7615 7.74381 7.41288 13.0795 4.99662C15.039 4.10518 17.2111 3.61255 19.4776 3.61255C28.0005 3.63601 34.9179 10.5094 34.9179 19.0015Z" fill="#85BE7B"/>
<path d="M34.4457 43.0001C37.3013 43.0001 39.6161 40.6999 39.6161 37.8626C39.6161 35.0252 37.3013 32.7251 34.4457 32.7251C31.5902 32.7251 29.2753 35.0252 29.2753 37.8626C29.2753 40.6999 31.5902 43.0001 34.4457 43.0001Z" fill="#E3B947"/>
<path d="M39.5217 8.32788C39.5217 11.6825 37.5385 14.5679 34.6582 15.8816C34.6346 15.8816 34.611 15.9051 34.611 15.9051C34.5874 15.9051 34.5638 15.9285 34.5402 15.9285C33.5014 16.3743 32.3681 16.6323 31.1405 16.6323C26.5131 16.6323 22.7592 12.9023 22.7592 8.30442C22.7592 6.94381 23.0897 5.65357 23.68 4.52755C23.68 4.52755 23.68 4.50409 23.7036 4.50409C23.7508 4.41026 23.798 4.33988 23.8452 4.24605C25.2854 1.71249 28.0241 0 31.1641 0C35.7915 0.0234588 39.5217 3.72995 39.5217 8.32788Z" fill="#D97B92"/>
<path d="M34.611 15.9051C34.5874 15.9051 34.5638 15.9286 34.5402 15.9286C33.5014 16.3743 32.3681 16.6323 31.1405 16.6323C26.5131 16.6323 22.7592 12.9024 22.7592 8.30447C22.7592 6.94386 23.0897 5.65362 23.68 4.5276C23.68 4.5276 23.68 4.50414 23.7036 4.50414C23.7508 4.41031 23.798 4.33993 23.8452 4.24609C29.2753 5.86475 33.4778 10.3454 34.611 15.9051Z" fill="#B86F71"/>
<path d="M13.0558 5.02026V32.9597C7.72018 30.5435 4.01355 25.1948 4.01355 18.9783C4.01355 12.7851 7.72018 7.43652 13.0558 5.02026Z" fill="#739D88"/>
<path d="M44.7157 40.2083V32.0681H49.3667V32.8188H45.542V35.5869H47.2183C47.6432 35.5869 48.021 35.6339 48.3515 35.7511C48.682 35.845 48.989 36.0092 49.225 36.1969C49.4611 36.3845 49.65 36.6426 49.7917 36.9241C49.9333 37.2056 49.9805 37.534 49.9805 37.8859C49.9805 38.2612 49.9097 38.5897 49.7681 38.8712C49.6264 39.1527 49.4375 39.3873 49.2014 39.5984C48.9653 39.8095 48.6584 39.9503 48.3279 40.0441C47.9738 40.1379 47.596 40.2083 47.1947 40.2083H44.7157ZM47.1474 39.4342C47.8085 39.4342 48.3043 39.2934 48.6584 39.0119C49.0126 38.7304 49.1778 38.3551 49.1778 37.8624C49.1778 37.3463 48.989 36.971 48.6348 36.713C48.2807 36.4549 47.7849 36.3376 47.1474 36.3376H45.542V39.4342H47.1474Z" fill="#717171"/>
<path d="M53.5691 39.3638L55.269 34.8127H56.1189L53.4275 41.5923C53.2622 42.0146 53.0497 42.343 52.8136 42.5776C52.5539 42.8357 52.1998 42.953 51.7276 42.953C51.4915 42.953 51.2554 42.9295 51.0193 42.8826L51.0902 42.1788C51.279 42.2492 51.4679 42.2726 51.6804 42.2726C51.9401 42.2726 52.1526 42.1788 52.3178 42.0146C52.4831 41.8504 52.6011 41.6158 52.7192 41.3108L53.1678 40.1848L50.8541 34.8127H51.7276L53.5691 39.3638Z" fill="#717171"/>
<path d="M57.0869 41.8037H56.3078V39.5282H57.1813L59.1645 34.8364H59.8492L61.6907 39.5282H62.5878V41.8037H61.8323V40.2085H57.0869V41.8037ZM57.984 39.5282H60.9116L59.495 35.7748L57.984 39.5282Z" fill="#717171"/>
<path d="M65.5153 39.3638L67.2152 34.8127H68.0651L65.3737 41.5923C65.2084 42.0146 64.9959 42.343 64.7598 42.5776C64.5001 42.8357 64.146 42.953 63.6738 42.953C63.4377 42.953 63.2017 42.9295 62.9656 42.8826L63.0364 42.1788C63.2253 42.2492 63.4141 42.2726 63.6266 42.2726C63.8863 42.2726 64.0988 42.1788 64.2641 42.0146C64.4293 41.8504 64.5474 41.6158 64.6654 41.3108L65.114 40.1848L62.8003 34.8127H63.6738L65.5153 39.3638Z" fill="#717171"/>
<path d="M69.2456 40.2085V34.8364H70.0247V39.5516H72.4564V34.8364H73.2356V39.5516H75.6673V34.8364H76.4464V39.5516H77.3435V41.8037H76.5644V40.2085H69.2456Z" fill="#717171"/>
<path d="M83.5764 37.3464C83.5764 37.3933 83.5764 37.4637 83.5764 37.5106C83.5764 37.581 83.5764 37.6279 83.5764 37.6983H79.0906C79.0906 37.9563 79.1615 38.2144 79.2559 38.449C79.3503 38.6836 79.492 38.8947 79.6809 39.0589C79.8697 39.2466 80.0586 39.3639 80.2947 39.4812C80.5308 39.575 80.7905 39.6454 81.0738 39.6454C81.4752 39.6454 81.8293 39.5515 82.1362 39.3639C82.4431 39.1762 82.6556 38.9651 82.8209 38.707L83.4111 39.1762C83.0806 39.575 82.7264 39.88 82.3487 40.0442C81.9473 40.2319 81.546 40.3022 81.0974 40.3022C80.6961 40.3022 80.3183 40.2319 79.9878 40.0911C79.6572 39.9503 79.3503 39.7627 79.1142 39.5046C78.8781 39.2466 78.6657 38.9416 78.524 38.6132C78.3823 38.2613 78.3115 37.886 78.3115 37.4872C78.3115 37.0884 78.3823 36.713 78.524 36.3612C78.6657 36.0093 78.8545 35.7278 79.1142 35.4697C79.3503 35.2117 79.6572 35.024 79.9878 34.8832C80.3183 34.7425 80.6724 34.6721 81.0738 34.6721C81.4988 34.6721 81.8765 34.7425 82.207 34.8832C82.5376 35.024 82.7973 35.2117 83.0098 35.4463C83.2222 35.6808 83.3875 35.9624 83.5055 36.2908C83.6236 36.6192 83.5764 36.9711 83.5764 37.3464ZM82.7973 37.0884C82.7737 36.5723 82.6084 36.1735 82.3015 35.8216C81.9946 35.4932 81.5696 35.329 81.003 35.329C80.7433 35.329 80.5072 35.3759 80.2711 35.4697C80.0586 35.5636 79.8461 35.7043 79.6809 35.8685C79.5156 36.0327 79.3739 36.2204 79.2795 36.4315C79.1851 36.6427 79.1142 36.8538 79.1142 37.0884H82.7973Z" fill="#717171"/>
<path d="M90.2105 37.3464C90.2105 37.3933 90.2105 37.4637 90.2105 37.5106C90.2105 37.581 90.2105 37.6279 90.2105 37.6983H85.7248C85.7248 37.9563 85.7956 38.2144 85.89 38.449C85.9845 38.6836 86.1261 38.8947 86.315 39.0589C86.5039 39.2466 86.6928 39.3639 86.9289 39.4812C87.1649 39.575 87.4246 39.6454 87.708 39.6454C88.1093 39.6454 88.4634 39.5515 88.7704 39.3639C89.0773 39.1762 89.2898 38.9651 89.455 38.707L90.0453 39.1762C89.7147 39.575 89.3606 39.88 88.9829 40.0442C88.5815 40.2319 88.1801 40.3022 87.7316 40.3022C87.3302 40.3022 86.9525 40.2319 86.6219 40.0911C86.2914 39.9503 85.9845 39.7627 85.7484 39.5046C85.5123 39.2466 85.2998 38.9416 85.1582 38.6132C85.0165 38.2613 84.9457 37.886 84.9457 37.4872C84.9457 37.0884 85.0165 36.713 85.1582 36.3612C85.2998 36.0093 85.4887 35.7278 85.7484 35.4697C85.9845 35.2117 86.2914 35.024 86.6219 34.8832C86.9525 34.7425 87.3066 34.6721 87.708 34.6721C88.1329 34.6721 88.5107 34.7425 88.8412 34.8832C89.1717 35.024 89.4314 35.2117 89.6439 35.4463C89.8564 35.6808 90.0217 35.9624 90.1397 36.2908C90.2577 36.6192 90.2105 36.9711 90.2105 37.3464ZM89.4078 37.0884C89.3842 36.5723 89.2189 36.1735 88.912 35.8216C88.6051 35.4932 88.1801 35.329 87.6135 35.329C87.3538 35.329 87.1177 35.3759 86.8816 35.4697C86.6692 35.5636 86.4567 35.7043 86.2914 35.8685C86.1261 36.0327 85.9845 36.2204 85.89 36.4315C85.7956 36.6427 85.7248 36.8538 85.7248 37.0884H89.4078Z" fill="#717171"/>
<path d="M94.956 36.0562L94.3421 35.6809C94.4366 35.4932 94.5782 35.3055 94.7435 35.1413C94.9088 35.0006 95.0976 34.8833 95.3573 34.7895C95.617 34.6722 95.9476 34.6252 96.3253 34.6252C96.6794 34.6252 96.9628 34.6722 97.2225 34.766C97.4585 34.8598 97.671 34.9771 97.8127 35.1179C97.9779 35.2586 98.0724 35.4228 98.1432 35.6105C98.214 35.7982 98.2613 35.9624 98.2613 36.1266C98.2613 36.3143 98.2376 36.4785 98.1668 36.6192C98.096 36.7835 98.0016 36.9007 97.8835 37.018C97.7655 37.1353 97.6238 37.2292 97.4349 37.2995C97.2461 37.3699 97.0808 37.4168 96.8919 37.4168V37.4403C97.1044 37.4403 97.2933 37.4638 97.4822 37.5107C97.671 37.5576 97.8363 37.628 97.9779 37.7218C98.1196 37.8156 98.2376 37.9564 98.3085 38.0971C98.4029 38.2614 98.4265 38.4256 98.4265 38.6602C98.4265 39.1528 98.2376 39.5281 97.8363 39.8331C97.4349 40.1381 96.9155 40.3023 96.2309 40.3023C95.8059 40.3023 95.4754 40.2554 95.2157 40.1381C94.956 40.0208 94.7435 39.9035 94.5782 39.7862C94.3894 39.622 94.2477 39.4578 94.1769 39.2466L94.8143 38.8478C94.8852 39.012 94.9796 39.1528 95.1212 39.2701C95.2393 39.3874 95.3809 39.4812 95.5698 39.5516C95.7587 39.6454 96.0184 39.6689 96.3253 39.6689C96.7503 39.6689 97.0808 39.5751 97.3169 39.3874C97.553 39.1997 97.671 38.9651 97.671 38.6602C97.671 38.4021 97.5766 38.191 97.3877 38.0033C97.1988 37.8156 96.8683 37.7218 96.3961 37.7218H95.7115V37.1353H96.3017C96.6558 37.1353 96.9391 37.065 97.1752 36.9007C97.4113 36.7365 97.5294 36.5019 97.5294 36.1735C97.5294 36.0328 97.5058 35.9155 97.4585 35.7982C97.4113 35.6809 97.3405 35.5636 97.2461 35.4698C97.1516 35.3759 97.0336 35.3055 96.8683 35.2352C96.7031 35.1648 96.5378 35.1413 96.3253 35.1413C96.042 35.1413 95.8295 35.1883 95.6406 35.2821C95.4518 35.3759 95.3337 35.4698 95.2157 35.5636C95.0976 35.7747 95.0032 35.9155 94.956 36.0562Z" fill="#717171"/>
<path d="M103.55 36.713C103.55 36.2439 103.432 35.892 103.172 35.6808C102.936 35.4463 102.558 35.329 102.086 35.329C101.755 35.329 101.472 35.3759 101.189 35.4932C100.905 35.6105 100.669 35.7512 100.481 35.9624L100.032 35.4463C100.244 35.2351 100.551 35.0475 100.905 34.8832C101.283 34.7425 101.685 34.6721 102.157 34.6721C102.44 34.6721 102.723 34.719 102.983 34.7894C103.243 34.8598 103.455 35.0005 103.644 35.1413C103.833 35.3055 103.998 35.5166 104.093 35.7512C104.211 35.9858 104.258 36.2908 104.258 36.6192V38.9651C104.258 39.1762 104.258 39.3873 104.282 39.5985C104.305 39.8096 104.329 39.9973 104.352 40.1615H103.644C103.621 40.0207 103.597 39.88 103.597 39.7392C103.573 39.575 103.573 39.4343 103.573 39.2935H103.55C103.314 39.6454 103.03 39.9034 102.7 40.0676C102.393 40.2319 102.015 40.3022 101.567 40.3022C101.354 40.3022 101.142 40.2788 100.929 40.2084C100.717 40.1615 100.504 40.0676 100.339 39.9269C100.15 39.7861 100.008 39.6219 99.8903 39.4108C99.7722 39.1997 99.7014 38.9416 99.7014 38.6601C99.7014 38.2379 99.7959 37.9094 100.008 37.6748C100.221 37.4403 100.504 37.2526 100.858 37.1353C101.212 37.018 101.614 36.9476 102.086 36.9007C102.535 36.8772 103.03 36.8538 103.526 36.8538L103.55 36.713ZM103.314 37.5106C102.983 37.5106 102.653 37.5341 102.346 37.5576C102.015 37.581 101.732 37.6279 101.448 37.7218C101.189 37.7921 100.953 37.9094 100.787 38.0736C100.622 38.2379 100.528 38.4255 100.528 38.6836C100.528 38.8712 100.575 39.0355 100.646 39.1762C100.717 39.317 100.811 39.4108 100.929 39.4812C101.047 39.5515 101.189 39.6219 101.33 39.6454C101.472 39.6688 101.637 39.6923 101.779 39.6923C102.062 39.6923 102.298 39.6454 102.511 39.5515C102.723 39.4577 102.912 39.317 103.054 39.1527C103.196 38.9885 103.314 38.8009 103.384 38.5897C103.455 38.3786 103.502 38.144 103.502 37.9094V37.5106H103.314Z" fill="#717171"/>
<path d="M113.111 36.0561C112.97 35.845 112.781 35.6808 112.545 35.5401C112.285 35.3993 112.025 35.3289 111.718 35.3289C111.411 35.3289 111.128 35.3758 110.868 35.4931C110.609 35.6104 110.396 35.7512 110.207 35.9623C110.019 36.1734 109.877 36.3846 109.782 36.6426C109.688 36.9007 109.641 37.1822 109.641 37.5106C109.641 37.8156 109.688 38.0971 109.782 38.3551C109.877 38.6132 110.019 38.8477 110.184 39.0354C110.373 39.2231 110.585 39.3873 110.821 39.5046C111.081 39.6219 111.364 39.6688 111.671 39.6688C112.025 39.6688 112.309 39.5984 112.545 39.4811C112.781 39.3404 112.97 39.1762 113.135 38.965L113.725 39.4108C113.489 39.6923 113.206 39.9268 112.875 40.0911C112.545 40.2553 112.143 40.3491 111.671 40.3491C111.223 40.3491 110.845 40.2787 110.491 40.138C110.137 39.9972 109.83 39.8096 109.594 39.5515C109.334 39.2935 109.145 38.9885 109.003 38.6601C108.862 38.3082 108.791 37.9328 108.791 37.534C108.791 37.1353 108.862 36.7599 109.003 36.408C109.145 36.0561 109.334 35.7746 109.594 35.5166C109.853 35.2585 110.137 35.0709 110.491 34.9301C110.845 34.7894 111.246 34.719 111.671 34.719C112.025 34.719 112.403 34.7894 112.781 34.9536C113.159 35.1178 113.465 35.3524 113.678 35.6573L113.111 36.0561Z" fill="#717171"/>
<path d="M119.084 35.8217L115.756 40.2085H114.953V34.8364H115.756V39.059L119.084 34.8364H119.887V40.2085H119.084V35.8217Z" fill="#717171"/>
<path d="M125.813 36.0561C125.671 35.845 125.483 35.6808 125.246 35.5401C124.987 35.3993 124.727 35.3289 124.42 35.3289C124.113 35.3289 123.83 35.3758 123.57 35.4931C123.311 35.6104 123.098 35.7512 122.909 35.9623C122.72 36.1734 122.579 36.3846 122.484 36.6426C122.39 36.9007 122.343 37.1822 122.343 37.5106C122.343 37.8156 122.39 38.0971 122.484 38.3551C122.579 38.6132 122.72 38.8477 122.886 39.0354C123.074 39.2231 123.287 39.3873 123.523 39.5046C123.783 39.6219 124.066 39.6688 124.373 39.6688C124.727 39.6688 125.01 39.5984 125.246 39.4811C125.483 39.3404 125.671 39.1762 125.837 38.965L126.427 39.4108C126.191 39.6923 125.908 39.9268 125.577 40.0911C125.246 40.2553 124.845 40.3491 124.373 40.3491C123.924 40.3491 123.547 40.2787 123.192 40.138C122.838 39.9972 122.531 39.8096 122.295 39.5515C122.036 39.2935 121.847 38.9885 121.705 38.6601C121.563 38.3082 121.493 37.9328 121.493 37.534C121.493 37.1353 121.563 36.7599 121.705 36.408C121.847 36.0561 122.036 35.7746 122.295 35.5166C122.555 35.2585 122.838 35.0709 123.192 34.9301C123.547 34.7894 123.948 34.719 124.373 34.719C124.727 34.719 125.105 34.7894 125.483 34.9536C125.86 35.1178 126.167 35.3524 126.38 35.6573L125.813 36.0561Z" fill="#717171"/>
<path d="M126.781 34.8127H131.526V35.4696H129.473V40.1848H128.693V35.4696H126.781V34.8127Z" fill="#717171"/>
<path d="M137.618 37.3464C137.618 37.3933 137.618 37.4637 137.618 37.5106C137.618 37.581 137.618 37.6279 137.618 37.6983H133.132C133.132 37.9563 133.203 38.2144 133.297 38.449C133.392 38.6836 133.533 38.8947 133.722 39.0589C133.911 39.2466 134.1 39.3639 134.336 39.4812C134.572 39.575 134.832 39.6454 135.115 39.6454C135.516 39.6454 135.871 39.5515 136.177 39.3639C136.484 39.1762 136.697 38.9651 136.862 38.707L137.452 39.1762C137.122 39.575 136.768 39.88 136.39 40.0442C135.989 40.2319 135.587 40.3022 135.139 40.3022C134.737 40.3022 134.36 40.2319 134.029 40.0911C133.699 39.9503 133.392 39.7627 133.155 39.5046C132.919 39.2466 132.707 38.9416 132.565 38.6132C132.424 38.2613 132.353 37.886 132.353 37.4872C132.353 37.0884 132.424 36.713 132.565 36.3612C132.707 36.0093 132.896 35.7278 133.155 35.4697C133.392 35.2117 133.699 35.024 134.029 34.8832C134.36 34.7425 134.714 34.6721 135.115 34.6721C135.54 34.6721 135.918 34.7425 136.248 34.8832C136.579 35.024 136.839 35.2117 137.051 35.4463C137.263 35.6808 137.429 35.9624 137.547 36.2908C137.665 36.6192 137.618 36.9711 137.618 37.3464ZM136.815 37.0884C136.791 36.5723 136.626 36.1735 136.319 35.8216C136.012 35.4932 135.587 35.329 135.021 35.329C134.761 35.329 134.525 35.3759 134.289 35.4697C134.076 35.5636 133.864 35.7043 133.699 35.8685C133.533 36.0327 133.392 36.2204 133.297 36.4315C133.203 36.6427 133.132 36.8538 133.132 37.0884H136.815Z" fill="#717171"/>
<path d="M139.931 34.8127L142.292 37.5809L144.63 34.8127H145.291V40.1848H144.512V35.9388L142.434 38.5192H142.103L140.026 36.0091V40.1848H139.247V34.8127H139.931Z" fill="#717171"/>
<path d="M148.1 40.2085H147.321V34.8364H148.1V37.0181H151.193V34.8364H151.972V40.2085H151.193V37.6515H148.1V40.2085Z" fill="#717171"/>
<path d="M159.385 37.5106C159.385 37.9094 159.314 38.2848 159.173 38.6366C159.031 38.9885 158.842 39.27 158.583 39.5281C158.323 39.7861 158.016 39.9738 157.662 40.1145C157.308 40.2553 156.906 40.3257 156.505 40.3257C156.08 40.3257 155.702 40.2553 155.348 40.1145C154.994 39.9738 154.687 39.7861 154.427 39.5281C154.168 39.27 153.979 38.9651 153.837 38.6366C153.695 38.2848 153.625 37.9094 153.625 37.5106C153.625 37.1118 153.695 36.7365 153.837 36.3846C153.979 36.0327 154.168 35.7512 154.427 35.4932C154.687 35.2351 154.994 35.0474 155.348 34.9067C155.702 34.7659 156.08 34.6956 156.505 34.6956C156.93 34.6956 157.308 34.7659 157.662 34.9067C158.016 35.0474 158.323 35.2351 158.583 35.4932C158.842 35.7512 159.031 36.0562 159.173 36.3846C159.314 36.7365 159.385 37.1118 159.385 37.5106ZM158.559 37.5106C158.559 37.2056 158.512 36.9241 158.417 36.6661C158.323 36.4081 158.181 36.1735 158.016 35.9858C157.827 35.7981 157.615 35.6339 157.378 35.5166C157.119 35.3993 156.835 35.3524 156.529 35.3524C156.222 35.3524 155.938 35.3993 155.679 35.5166C155.419 35.6339 155.206 35.7981 155.041 35.9858C154.852 36.1735 154.734 36.4081 154.64 36.6661C154.545 36.9241 154.498 37.2056 154.498 37.5106C154.498 37.8156 154.545 38.0971 154.64 38.3551C154.734 38.6132 154.876 38.8478 155.041 39.0354C155.23 39.2231 155.443 39.3873 155.679 39.5046C155.938 39.6219 156.222 39.6688 156.529 39.6688C156.835 39.6688 157.119 39.6219 157.378 39.5046C157.638 39.3873 157.851 39.2466 158.016 39.0354C158.205 38.8478 158.323 38.6132 158.417 38.3551C158.512 38.0971 158.559 37.8156 158.559 37.5106Z" fill="#717171"/>
<path d="M165.146 35.8215L161.817 40.2083H161.014V34.8362H161.817V39.0588L165.146 34.8362H165.949V40.2083H165.146V35.8215ZM161.77 32.3731C161.841 32.5607 161.911 32.7249 162.006 32.8892C162.1 33.0534 162.218 33.1941 162.36 33.3349C162.502 33.4522 162.667 33.5695 162.856 33.6398C163.045 33.7102 163.281 33.7571 163.517 33.7571C163.777 33.7571 164.013 33.7102 164.202 33.6164C164.39 33.5225 164.579 33.4287 164.721 33.2879C164.863 33.1472 164.981 33.0064 165.075 32.8422C165.169 32.678 165.24 32.5138 165.288 32.3731L164.721 32.115C164.603 32.3965 164.461 32.6546 164.296 32.8422C164.107 33.0299 163.871 33.1237 163.517 33.1237C163.186 33.1237 162.927 33.0299 162.761 32.8422C162.572 32.6546 162.431 32.42 162.313 32.0916L161.77 32.3731Z" fill="#717171"/>
<path d="M171.686 42.9531H170.907V34.8129H171.686V35.7512H171.709C171.922 35.3993 172.229 35.1413 172.606 34.9536C172.984 34.766 173.362 34.6721 173.74 34.6721C174.165 34.6721 174.542 34.7425 174.896 34.8832C175.251 35.024 175.534 35.2351 175.77 35.4697C176.006 35.7278 176.195 36.0327 176.337 36.3612C176.478 36.713 176.549 37.0884 176.549 37.4872C176.549 37.886 176.478 38.2613 176.337 38.6132C176.195 38.9651 176.006 39.2466 175.77 39.5046C175.534 39.7627 175.227 39.9503 174.896 40.0911C174.542 40.2319 174.165 40.3022 173.74 40.3022C173.362 40.3022 172.984 40.2084 172.606 40.0207C172.229 39.8331 171.922 39.575 171.709 39.2466H171.686V42.9531ZM175.723 37.5106C175.723 37.2057 175.676 36.9242 175.581 36.6661C175.487 36.4081 175.345 36.1735 175.18 35.9858C175.015 35.7981 174.802 35.6339 174.542 35.5166C174.283 35.3993 173.999 35.3524 173.669 35.3524C173.362 35.3524 173.079 35.3993 172.842 35.5166C172.583 35.6339 172.37 35.7747 172.181 35.9858C171.993 36.1735 171.851 36.4081 171.756 36.6661C171.662 36.9242 171.591 37.2057 171.591 37.5341C171.591 37.8391 171.638 38.1206 171.756 38.4021C171.851 38.6601 172.016 38.8947 172.181 39.0824C172.37 39.27 172.583 39.4343 172.842 39.5281C173.102 39.6454 173.386 39.6923 173.669 39.6923C173.999 39.6923 174.283 39.6454 174.542 39.5281C174.802 39.4108 175.015 39.27 175.18 39.0589C175.345 38.8478 175.487 38.6367 175.581 38.3786C175.676 38.0971 175.723 37.8156 175.723 37.5106Z" fill="#717171"/>
<path d="M181.649 36.713C181.649 36.2439 181.531 35.892 181.271 35.6808C181.035 35.4463 180.657 35.329 180.185 35.329C179.854 35.329 179.571 35.3759 179.288 35.4932C179.004 35.6105 178.768 35.7512 178.58 35.9624L178.131 35.4463C178.343 35.2351 178.65 35.0475 179.004 34.8832C179.382 34.7425 179.784 34.6721 180.256 34.6721C180.539 34.6721 180.822 34.719 181.082 34.7894C181.342 34.8598 181.554 35.0005 181.743 35.1413C181.932 35.3055 182.097 35.5166 182.192 35.7512C182.31 35.9858 182.357 36.2908 182.357 36.6192V38.9651C182.357 39.1762 182.357 39.3873 182.381 39.5985C182.404 39.8096 182.428 39.9973 182.451 40.1615H181.743C181.72 40.0207 181.696 39.88 181.696 39.7392C181.672 39.575 181.672 39.4343 181.672 39.2935H181.649C181.413 39.6454 181.129 39.9034 180.799 40.0676C180.492 40.2319 180.114 40.3022 179.666 40.3022C179.453 40.3022 179.241 40.2788 179.028 40.2084C178.816 40.1615 178.603 40.0676 178.438 39.9269C178.249 39.7861 178.107 39.6219 177.989 39.4108C177.871 39.1997 177.8 38.9416 177.8 38.6601C177.8 38.2379 177.895 37.9094 178.107 37.6748C178.32 37.4403 178.603 37.2526 178.957 37.1353C179.311 37.018 179.713 36.9476 180.185 36.9007C180.634 36.8772 181.129 36.8538 181.625 36.8538L181.649 36.713ZM181.413 37.5106C181.082 37.5106 180.752 37.5341 180.445 37.5576C180.114 37.581 179.831 37.6279 179.547 37.7218C179.288 37.7921 179.052 37.9094 178.886 38.0736C178.721 38.2379 178.627 38.4255 178.627 38.6836C178.627 38.8712 178.674 39.0355 178.745 39.1762C178.816 39.317 178.91 39.4108 179.028 39.4812C179.146 39.5515 179.288 39.6219 179.429 39.6454C179.571 39.6688 179.736 39.6923 179.878 39.6923C180.161 39.6923 180.397 39.6454 180.61 39.5515C180.822 39.4577 181.011 39.317 181.153 39.1527C181.295 38.9885 181.413 38.8009 181.483 38.5897C181.554 38.3786 181.601 38.144 181.601 37.9094V37.5106H181.413Z" fill="#717171"/>
<path d="M186.984 34.9066C187.386 34.9066 187.74 34.977 188.07 35.0943C188.401 35.235 188.684 35.3992 188.92 35.6573C189.156 35.8919 189.345 36.1734 189.463 36.5253C189.605 36.8537 189.652 37.229 189.652 37.6278C189.652 38.0501 189.581 38.4254 189.44 38.7539C189.298 39.0823 189.086 39.3872 188.85 39.6218C188.613 39.8564 188.306 40.0441 187.976 40.1614C187.645 40.2787 187.291 40.3491 186.914 40.3491C186.489 40.3491 186.087 40.2787 185.757 40.1379C185.426 39.9972 185.119 39.8095 184.883 39.5515C184.647 39.2934 184.458 38.9884 184.317 38.6131C184.175 38.2378 184.128 37.839 184.128 37.3932C184.128 37.1821 184.128 36.9475 184.151 36.7599C184.175 36.5722 184.175 36.3611 184.199 36.1499C184.317 34.7893 184.671 33.7806 185.285 33.1003C185.875 32.42 186.796 32.0916 188 32.0916H189.558V32.7484H187.976C187.409 32.7484 186.937 32.8188 186.583 32.983C186.205 33.1472 185.922 33.3583 185.686 33.6398C185.45 33.9213 185.285 34.2732 185.166 34.672C185.048 35.0708 184.954 35.5165 184.883 35.9857C185.072 35.6573 185.379 35.3992 185.733 35.2116C186.111 35.0004 186.512 34.9066 186.984 34.9066ZM188.826 37.6278C188.826 37.3229 188.779 37.0648 188.684 36.8068C188.59 36.5487 188.472 36.3376 188.306 36.1499C188.141 35.9623 187.952 35.8215 187.716 35.7277C187.48 35.6338 187.22 35.5869 186.937 35.5869C186.677 35.5869 186.418 35.6338 186.182 35.7042C185.946 35.7746 185.733 35.9153 185.544 36.0561C185.355 36.1968 185.214 36.408 185.096 36.666C184.978 36.9006 184.93 37.1821 184.93 37.5105C184.93 37.839 184.978 38.1205 185.072 38.3785C185.166 38.6366 185.308 38.8711 185.473 39.0588C185.639 39.2465 185.851 39.3872 186.111 39.5045C186.347 39.6218 186.63 39.6687 186.937 39.6687C187.244 39.6687 187.504 39.6218 187.74 39.5045C187.976 39.3872 188.165 39.2465 188.33 39.0588C188.495 38.8711 188.613 38.66 188.684 38.402C188.779 38.1674 188.826 37.9093 188.826 37.6278Z" fill="#717171"/>
<path d="M196.735 37.5106C196.735 37.9094 196.664 38.2848 196.522 38.6366C196.381 38.9885 196.192 39.27 195.932 39.5281C195.673 39.7861 195.366 39.9738 195.011 40.1145C194.657 40.2553 194.256 40.3257 193.855 40.3257C193.43 40.3257 193.052 40.2553 192.698 40.1145C192.344 39.9738 192.037 39.7861 191.777 39.5281C191.517 39.27 191.328 38.9651 191.187 38.6366C191.045 38.2848 190.974 37.9094 190.974 37.5106C190.974 37.1118 191.045 36.7365 191.187 36.3846C191.328 36.0327 191.517 35.7512 191.777 35.4932C192.037 35.2351 192.344 35.0474 192.698 34.9067C193.052 34.7659 193.43 34.6956 193.855 34.6956C194.28 34.6956 194.657 34.7659 195.011 34.9067C195.366 35.0474 195.673 35.2351 195.932 35.4932C196.192 35.7512 196.381 36.0562 196.522 36.3846C196.664 36.7365 196.735 37.1118 196.735 37.5106ZM195.885 37.5106C195.885 37.2056 195.838 36.9241 195.743 36.6661C195.649 36.4081 195.507 36.1735 195.342 35.9858C195.153 35.7981 194.941 35.6339 194.705 35.5166C194.445 35.3993 194.162 35.3524 193.855 35.3524C193.548 35.3524 193.264 35.3993 193.005 35.5166C192.745 35.6339 192.532 35.7981 192.367 35.9858C192.178 36.1735 192.06 36.4081 191.966 36.6661C191.871 36.9241 191.824 37.2056 191.824 37.5106C191.824 37.8156 191.871 38.0971 191.966 38.3551C192.06 38.6132 192.202 38.8478 192.367 39.0354C192.556 39.2231 192.769 39.3873 193.005 39.5046C193.264 39.6219 193.548 39.6688 193.855 39.6688C194.162 39.6688 194.445 39.6219 194.705 39.5046C194.964 39.3873 195.177 39.2466 195.342 39.0354C195.531 38.8478 195.649 38.6132 195.743 38.3551C195.838 38.0971 195.885 37.8156 195.885 37.5106Z" fill="#717171"/>
<path d="M197.49 34.8127H202.236V35.4696H200.182V40.1848H199.403V35.4696H197.49V34.8127Z" fill="#717171"/>
<path d="M208.776 37.5106C208.776 37.9094 208.705 38.2848 208.563 38.6366C208.421 38.9885 208.233 39.27 207.973 39.5281C207.713 39.7861 207.406 39.9738 207.052 40.1145C206.698 40.2553 206.297 40.3257 205.895 40.3257C205.47 40.3257 205.093 40.2553 204.738 40.1145C204.384 39.9738 204.077 39.7861 203.818 39.5281C203.558 39.27 203.369 38.9651 203.227 38.6366C203.086 38.2848 203.015 37.9094 203.015 37.5106C203.015 37.1118 203.086 36.7365 203.227 36.3846C203.369 36.0327 203.558 35.7512 203.818 35.4932C204.077 35.2351 204.384 35.0474 204.738 34.9067C205.093 34.7659 205.47 34.6956 205.895 34.6956C206.32 34.6956 206.698 34.7659 207.052 34.9067C207.406 35.0474 207.713 35.2351 207.973 35.4932C208.233 35.7512 208.421 36.0562 208.563 36.3846C208.705 36.7365 208.776 37.1118 208.776 37.5106ZM207.949 37.5106C207.949 37.2056 207.902 36.9241 207.808 36.6661C207.713 36.4081 207.572 36.1735 207.406 35.9858C207.217 35.7981 207.005 35.6339 206.769 35.5166C206.509 35.3993 206.226 35.3524 205.919 35.3524C205.612 35.3524 205.329 35.3993 205.069 35.5166C204.809 35.6339 204.597 35.7981 204.432 35.9858C204.243 36.1735 204.125 36.4081 204.03 36.6661C203.936 36.9241 203.888 37.2056 203.888 37.5106C203.888 37.8156 203.936 38.0971 204.03 38.3551C204.125 38.6132 204.266 38.8478 204.432 39.0354C204.62 39.2231 204.833 39.3873 205.069 39.5046C205.329 39.6219 205.612 39.6688 205.919 39.6688C206.226 39.6688 206.509 39.6219 206.769 39.5046C207.029 39.3873 207.241 39.2466 207.406 39.0354C207.595 38.8478 207.713 38.6132 207.808 38.3551C207.902 38.0971 207.949 37.8156 207.949 37.5106Z" fill="#717171"/>
<path d="M214.56 35.8215L211.231 40.2083H210.428V34.8362H211.231V39.0588L214.56 34.8362H215.363V40.2083H214.56V35.8215ZM211.184 32.3731C211.255 32.5607 211.325 32.7249 211.42 32.8892C211.514 33.0534 211.632 33.1941 211.774 33.3349C211.916 33.4522 212.081 33.5695 212.27 33.6398C212.459 33.7102 212.695 33.7571 212.931 33.7571C213.19 33.7571 213.427 33.7102 213.615 33.6164C213.804 33.5225 213.993 33.4287 214.135 33.2879C214.277 33.1472 214.395 33.0064 214.489 32.8422C214.583 32.678 214.654 32.5138 214.701 32.3731L214.135 32.115C214.017 32.3965 213.875 32.6546 213.71 32.8422C213.521 33.0299 213.285 33.1237 212.931 33.1237C212.6 33.1237 212.341 33.0299 212.175 32.8422C211.986 32.6546 211.845 32.42 211.727 32.0916L211.184 32.3731Z" fill="#717171"/>
</svg>
